<svg width="9" height="9" viewBox="0 0 9 9" fill="none" xmlns="http://www.w3.org/2000/svg">
<path d="M4.5 8.25C2.42888 8.25 0.75 6.57113 0.75 4.5C0.75 2.42888 2.42888 0.75 4.5 0.75C6.57113 0.75 8.25 2.42888 8.25 4.5C8.25 6.57113 6.57113 8.25 4.5 8.25ZM4.5 7.5C5.29565 7.5 6.05871 7.18393 6.62132 6.62132C7.18393 6.05871 7.5 5.29565 7.5 4.5C7.5 3.70435 7.18393 2.94129 6.62132 2.37868C6.05871 1.81607 5.29565 1.5 4.5 1.5C3.70435 1.5 2.94129 1.81607 2.37868 2.37868C1.81607 2.94129 1.5 3.70435 1.5 4.5C1.5 5.29565 1.81607 6.05871 2.37868 6.62132C2.94129 7.18393 3.70435 7.5 4.5 7.5ZM4.875 4.5H6.375V5.25H4.125V2.625H4.875V4.5Z" fill="#313E47" fill-opacity="0.9"/>
</svg>
