<svg width="15" height="18" viewBox="0 0 15 18" fill="none" xmlns="http://www.w3.org/2000/svg">
<path fill-rule="evenodd" clip-rule="evenodd" d="M14 13.9336L14.32 14.36C14.4109 14.4812 14.4255 14.6433 14.3578 14.7789C14.29 14.9144 14.1515 15 14 15H1.19999C1.04848 15 0.909976 14.9144 0.842219 14.7789C0.774462 14.6433 0.789085 14.4812 0.87999 14.36L1.19999 13.9336V6.99998C1.19999 3.46535 4.06537 0.599976 7.59999 0.599976C11.1346 0.599976 14 3.46535 14 6.99998V13.9336ZM12.4 6.99998C12.4 4.34901 10.251 2.19998 7.59999 2.19998C4.94902 2.19998 2.79999 4.34901 2.79999 6.99998V13.4H12.4V6.99998ZM7.59999 17.8C8.70456 17.8 9.59999 16.9045 9.59999 15.8H5.59999C5.59999 16.9045 6.49542 17.8 7.59999 17.8Z" fill="white"/>
</svg>
