<svg width="12" height="13" viewBox="0 0 12 13" fill="none" xmlns="http://www.w3.org/2000/svg">
<path d="M6 12.8414L2.28767 9.12904C1.55345 8.39481 1.05344 7.45935 0.850871 6.44095C0.648304 5.42255 0.752275 4.36695 1.14964 3.40764C1.547 2.44834 2.2199 1.6284 3.08326 1.05153C3.94662 0.474654 4.96165 0.166748 6 0.166748C7.03835 0.166748 8.05338 0.474654 8.91673 1.05153C9.78009 1.6284 10.453 2.44834 10.8504 3.40764C11.2477 4.36695 11.3517 5.42255 11.1491 6.44095C10.9466 7.45935 10.4466 8.39481 9.71233 9.12904L6 12.8414ZM8.8875 8.3042C9.45852 7.73312 9.84738 7.00554 10.0049 6.21346C10.1624 5.42138 10.0815 4.60038 9.77247 3.85428C9.4634 3.10817 8.94002 2.47046 8.26853 2.0218C7.59704 1.57314 6.80759 1.33366 6 1.33366C5.19241 1.33366 4.40296 1.57314 3.73146 2.0218C3.05997 2.47046 2.5366 3.10817 2.22753 3.85428C1.91846 4.60038 1.83757 5.42138 1.99509 6.21346C2.15262 7.00554 2.54148 7.73312 3.1125 8.3042L6 11.1917L8.8875 8.3042ZM6 6.58337C5.69058 6.58337 5.39383 6.46045 5.17504 6.24166C4.95625 6.02287 4.83333 5.72612 4.83333 5.4167C4.83333 5.10728 4.95625 4.81054 5.17504 4.59174C5.39383 4.37295 5.69058 4.25004 6 4.25004C6.30942 4.25004 6.60616 4.37295 6.82496 4.59174C7.04375 4.81054 7.16667 5.10728 7.16667 5.4167C7.16667 5.72612 7.04375 6.02287 6.82496 6.24166C6.60616 6.46045 6.30942 6.58337 6 6.58337Z" fill="#313E47"/>
</svg>
