<svg width="24" height="24" viewBox="0 0 24 24" fill="none" xmlns="http://www.w3.org/2000/svg">
<path d="M20.944 0H2.992C1.34187 0 0 1.34546 0 2.99999V20.9999C0 22.6545 1.34187 23.9999 2.992 23.9999H20.944C22.5941 23.9999 23.936 22.6545 23.936 20.9999V2.99999C23.936 1.34546 22.5941 0 20.944 0ZM2.992 1.99999H20.944C21.494 1.99999 21.9413 2.44848 21.9413 2.99999V10.0859L18.6571 6.79295C18.2676 6.40257 17.6364 6.40257 17.2469 6.79295L10.2227 13.8359L7.68648 11.2929C7.2969 10.9026 6.66577 10.9026 6.27619 11.2929L1.99467 15.5859V2.99999C1.99467 2.44848 2.44196 1.99999 2.992 1.99999ZM20.944 21.9999H2.992C2.44196 21.9999 1.99467 21.5515 1.99467 20.9999V18.414L6.98133 13.414L12.7589 19.2065C12.9539 19.4025 13.2086 19.5 13.464 19.5C13.7194 19.5 13.9741 19.4025 14.1691 19.207C14.5585 18.8164 14.5585 18.1835 14.1691 17.7929L11.633 15.25L17.952 8.91453L21.9413 12.9145V20.9999C21.9413 21.5515 21.494 21.9999 20.944 21.9999Z" fill="white"/>
</svg>
